# xmcd
# 
# Track frame offsets:
#     183
#     26025
#     99680
#     122423
#     160405
# 
# Disc length: 2954
# 
# Revision: 12
# Processed by: cddbd v1.5.2PL0 Copyright (c) Steve Scherf et al.
# Submitted via: fre:ac v1.0.17
# 
DISCID=390b8805
DTITLE=Pat Metheny Group - Travels [Live] [CD 2]
DYEAR=1983
DGENRE=Jazz
TTITLE0=Extradition
TTITLE1=Goin' Ahead - As Falls Wichita, So Falls Wichita Falls
TTITLE2=Travels
TTITLE3=Song For Bilbao
TTITLE4=San Lorenzo
EXTD=
EXTT0=
EXTT1=
EXTT2=
EXTT3=
EXTT4=
PLAYORDER=
